<svg xmlns="http://www.w3.org/2000/svg" viewBox="0 0 512 512">
  <defs>
    <linearGradient id="bg" x1="60" y1="20" x2="452" y2="492" gradientUnits="userSpaceOnUse">
      <stop stop-color="#173b64"/>
      <stop offset=".48" stop-color="#101d35"/>
      <stop offset="1" stop-color="#090e1a"/>
    </linearGradient>
    <linearGradient id="yellow" x1="0" y1="0" x2="1" y2="1">
      <stop stop-color="#fff68b"/>
      <stop offset=".5" stop-color="#ffdc18"/>
      <stop offset="1" stop-color="#f29a00"/>
    </linearGradient>
    <linearGradient id="road" x1="0" y1="0" x2="1" y2="0">
      <stop stop-color="#54d8ff"/>
      <stop offset="1" stop-color="#aa82ff"/>
    </linearGradient>
    <filter id="glow"><feGaussianBlur stdDeviation="9" result="b"/><feMerge><feMergeNode in="b"/><feMergeNode in="SourceGraphic"/></feMerge></filter>
  </defs>
  <rect width="512" height="512" rx="126" fill="url(#bg)"/>
  <circle cx="100" cy="86" r="170" fill="#2b87ca" opacity=".13"/>
  <circle cx="446" cy="440" r="185" fill="#8c4bc3" opacity=".12"/>
  <path d="M42 384C126 322 117 231 205 227s92 105 174 77c44-15 54-63 91-84" fill="none" stroke="#06101e" stroke-width="72" stroke-linecap="round" opacity=".8"/>
  <path d="M42 384C126 322 117 231 205 227s92 105 174 77c44-15 54-63 91-84" fill="none" stroke="url(#road)" stroke-width="7" stroke-linecap="round" stroke-dasharray="21 18" opacity=".85" filter="url(#glow)"/>
  <g transform="translate(86 236)" fill="none" stroke="#f7fbff" stroke-width="15" stroke-linecap="round" stroke-linejoin="round">
    <circle cx="68" cy="116" r="52"/>
    <circle cx="238" cy="116" r="52"/>
    <path d="m68 116 58-103h54l58 103M98 70h103M126 13 99-27h44M180-27h43"/>
  </g>
  <g transform="translate(331 56) rotate(7 64 72)" filter="url(#glow)">
    <path d="M28 8 51 20h26L100 8l25 27-19 25-12-11v84H34V49L22 60 3 35Z" fill="url(#yellow)" stroke="#fff5a8" stroke-width="5" stroke-linejoin="round"/>
    <path d="M51 20c6 12 20 12 26 0" fill="none" stroke="#9a6100" stroke-width="5" stroke-linecap="round"/>
    <path d="M47 76h34" stroke="#fff7ba" stroke-width="5" stroke-linecap="round" opacity=".65"/>
  </g>
  <path d="M85 90h18v70H85z" fill="#2367d1"/><path d="M103 90h18v70h-18z" fill="#f7f8ff"/><path d="M121 90h18v70h-18z" fill="#f04a5b"/>
  <text x="84" y="206" fill="#fff" font-family="Arial, sans-serif" font-size="45" font-weight="900" letter-spacing="-3">FRANCE</text>
  <text x="84" y="242" fill="#ffdc18" font-family="Arial, sans-serif" font-size="28" font-weight="900" letter-spacing="5">QUEST</text>
</svg>
