<svg xmlns="http://www.w3.org/2000/svg" viewBox="0 0 512 512">
  <defs>
    <linearGradient id="sky" x1="60" y1="15" x2="450" y2="500" gradientUnits="userSpaceOnUse">
      <stop stop-color="#763b9f"/><stop offset=".44" stop-color="#d94f79"/><stop offset=".72" stop-color="#f69242"/><stop offset="1" stop-color="#1b1533"/>
    </linearGradient>
    <linearGradient id="bus" x1="130" y1="175" x2="390" y2="390" gradientUnits="userSpaceOnUse">
      <stop stop-color="#ffec6a"/><stop offset=".48" stop-color="#ff9d3c"/><stop offset="1" stop-color="#ed4f72"/>
    </linearGradient>
    <filter id="glow"><feGaussianBlur stdDeviation="10" result="b"/><feMerge><feMergeNode in="b"/><feMergeNode in="SourceGraphic"/></feMerge></filter>
  </defs>
  <rect width="512" height="512" rx="126" fill="url(#sky)"/>
  <circle cx="391" cy="112" r="61" fill="#ffe86b" opacity=".92" filter="url(#glow)"/>
  <path d="M0 315 76 244l69 48 78-92 83 93 75-64 131 93v190H0Z" fill="#39214e" opacity=".68"/>
  <path d="M0 370c105-45 194-18 273 18 79 35 146 25 239-28v152H0Z" fill="#15132b"/>
  <path d="M59 439c110-60 216-44 393 15" fill="none" stroke="#f7c45b" stroke-width="8" stroke-linecap="round" stroke-dasharray="24 20" opacity=".75"/>
  <g transform="translate(88 162)">
    <path d="M51 24h231c31 0 56 25 56 56v128c0 20-16 36-36 36H47c-20 0-36-16-36-36V64c0-22 18-40 40-40Z" fill="url(#bus)" stroke="#fff3ac" stroke-width="8"/>
    <path d="M43 59c2-12 13-21 26-21h212c13 0 24 9 27 21l13 72H28Z" fill="#352652" stroke="#fff3ac" stroke-width="7" stroke-linejoin="round"/>
    <path d="M174 39v92" stroke="#fff3ac" stroke-width="7"/>
    <path d="M18 151c62 8 115 37 157 79 42-42 94-71 156-79" fill="none" stroke="#fff3ac" stroke-width="7" opacity=".88"/>
    <path d="M3 91H-9v30H5M346 91h12v30h-14" fill="#f45d91" stroke="#fff3ac" stroke-width="7" stroke-linejoin="round"/>
    <circle cx="82" cy="223" r="37" fill="#171426" stroke="#fff" stroke-width="8"/><circle cx="82" cy="223" r="15" fill="#ffce50"/>
    <circle cx="270" cy="223" r="37" fill="#171426" stroke="#fff" stroke-width="8"/><circle cx="270" cy="223" r="15" fill="#ffce50"/>
    <circle cx="65" cy="177" r="20" fill="#fff5ad" stroke="#fff" stroke-width="5"/><circle cx="286" cy="177" r="20" fill="#fff5ad" stroke="#fff" stroke-width="5"/>
    <circle cx="175" cy="182" r="28" fill="#63d9c8" stroke="#fff3ac" stroke-width="6"/>
    <g fill="none" stroke="#352652" stroke-width="8" stroke-linecap="round"><path d="M175 160v44M153 182h44"/></g>
    <path d="M55 153h25M271 153h25" stroke="#fff3ac" stroke-width="8" stroke-linecap="round"/>
  </g>
  <g transform="translate(55 76)" fill="none" stroke="#fff5b8" stroke-width="8" stroke-linecap="round"><path d="M10 42c28-20 52-20 76 0"/><path d="M27 28c5-18 37-18 42 0"/><path d="M18 50h61"/></g>
  <text x="55" y="136" fill="#fff" font-family="Arial Rounded MT Bold,Arial,sans-serif" font-size="41" font-weight="900">VAMOS!</text>
  <text x="56" y="170" fill="#ffe86b" font-family="Arial,sans-serif" font-size="19" font-weight="900" letter-spacing="7">ROADTRIP</text>
</svg>
